# xmcd CD database file
#
# Track frame offsets:
#	187
#	14277
#	29800
#	40210
#	46707
#	58265
#	71392
#	81845
#	93177
#	103937
#	115420
#	129140
#	139417
#	149020
#	158700
#	171120
#	182220
#	196375
#	208320
#	219342
#
# Disc length: 3092 seconds
#
# Revision: 5
# Processed by: cddbd v1.5.2PL0 Copyright (c) Steve Scherf et al.
# Submitted via: CDex 1.51
#
DISCID=2b0c1214
DTITLE=Sons of the Pioneers - Down Memory Trail [CD 3 of 4)
DYEAR=2002
DGENRE=Western
TTITLE0=When It's Springtime In The Rockies
TTITLE1=Home On The Range
TTITLE2=The Red River Valley
TTITLE3=Sweet Betsy From Pike
TTITLE4=Be Honest With Me
TTITLE5=Moonlight And Roses (Bring Memories Of You)
TTITLE6=Wagon Wheels
TTITLE7=Twilight On The Trail
TTITLE8=When The Bloom Is On The Sage
TTITLE9=Along The Santa Fe Trail
TTITLE10=Pecos Bill (With Roy Rogers)
TTITLE11=Jesse James
TTITLE12=Whoopee-Ti-Yi-Yo (Git Along Little Dogies)
TTITLE13=Along The Navajo Trail
TTITLE14=The Strawberry Roan
TTITLE15=Ragtime Cowboy Joe
TTITLE16=Carry Me Back To The Lone Prairie
TTITLE17=Cimarron (Roll On)
TTITLE18=I Love You Truly
TTITLE19=No One To Cry To
EXTD=SSFLM00883-3\nXCD4-5783 YEAR: 2002
EXTT0=
EXTT1=
EXTT2=
EXTT3=
EXTT4=
EXTT5=
EXTT6=
EXTT7=
EXTT8=
EXTT9=
EXTT10=
EXTT11=
EXTT12=
EXTT13=
EXTT14=
EXTT15=
EXTT16=
EXTT17=
EXTT18=
EXTT19=
PLAYORDER=
